<?xml version="1.0"?>
<!DOCTYPE svg PUBLIC "-//W3C//DTD SVG 1.1//EN" "http://www.w3.org/Graphics/SVG/1.1/DTD/svg11.dtd">
<svg width="37.842000000000006mm" height="100.74199999999999mm" viewBox="0 0 37.842000000000006 100.74199999999999" xmlns="http://www.w3.org/2000/svg" version="1.1">
<g id="Line" transform="translate(5.371000,100.371000) scale(1,-1)">
<path id="Line_w0000"  d="M 0.0 0.0 L 0.0 23.4 " stroke="#000000" stroke-width="0.35 px" style="stroke-width:0.35;stroke-miterlimit:4;stroke-dasharray:none;fill:none;fill-opacity:1;fill-rule: evenodd"/>
<title>b'Line'</title>
</g>
<g id="Line001" transform="translate(5.371000,100.371000) scale(1,-1)">
<path id="Line001_w0000"  d="M 0.0 10.0 L 5.0 10.0 " stroke="#000000" stroke-width="0.35 px" style="stroke-width:0.35;stroke-miterlimit:4;stroke-dasharray:none;fill:none;fill-opacity:1;fill-rule: evenodd"/>
<title>b'Line001'</title>
</g>
<g id="Line002" transform="translate(5.371000,100.371000) scale(1,-1)">
<path id="Line002_w0000"  d="M 0.0 23.4 L 5.0 23.4 " stroke="#000000" stroke-width="0.35 px" style="stroke-width:0.35;stroke-miterlimit:4;stroke-dasharray:none;fill:none;fill-opacity:1;fill-rule: evenodd"/>
<title>b'Line002'</title>
</g>
<g id="Line003" transform="translate(5.371000,100.371000) scale(1,-1)">
<path id="Line003_w0000"  d="M 25.1 26.0 L 25.1 100.0 " stroke="#000000" stroke-width="0.35 px" style="stroke-width:0.35;stroke-miterlimit:4;stroke-dasharray:none;fill:none;fill-opacity:1;fill-rule: evenodd"/>
<title>b'Line003'</title>
</g>
<g id="Line004" transform="translate(5.371000,100.371000) scale(1,-1)">
<path id="Line004_w0000"  d="M 25.1 26.0 L 7.600000000000001 26.0 " stroke="#000000" stroke-width="0.35 px" style="stroke-width:0.35;stroke-miterlimit:4;stroke-dasharray:none;fill:none;fill-opacity:1;fill-rule: evenodd"/>
<title>b'Line004'</title>
</g>
<g id="Line005" transform="translate(5.371000,100.371000) scale(1,-1)">
<path id="Line005_w0000"  d="M 25.1 100.0 L 27.1 100.0 " stroke="#000000" stroke-width="0.35 px" style="stroke-width:0.35;stroke-miterlimit:4;stroke-dasharray:none;fill:none;fill-opacity:1;fill-rule: evenodd"/>
<title>b'Line005'</title>
</g>
<g id="Line006" transform="translate(5.371000,100.371000) scale(1,-1)">
<path id="Line006_w0000"  d="M 27.1 100.0 L 27.1 0.0 " stroke="#000000" stroke-width="0.35 px" style="stroke-width:0.35;stroke-miterlimit:4;stroke-dasharray:none;fill:none;fill-opacity:1;fill-rule: evenodd"/>
<title>b'Line006'</title>
</g>
<g id="Line007" transform="translate(5.371000,100.371000) scale(1,-1)">
<path id="Line007_w0000"  d="M 0.0 7.0 L 27.1 7.0 " stroke="#000000" stroke-width="0.35 px" style="stroke-width:0.35;stroke-miterlimit:4;stroke-dasharray:none;fill:none;fill-opacity:1;fill-rule: evenodd"/>
<title>b'Line007'</title>
</g>
<g id="Line008" transform="translate(5.371000,100.371000) scale(1,-1)">
<path id="Line008_w0000"  d="M -5.0 0.0 L 32.1 0.0 " stroke="#000000" stroke-width="0.35 px" style="stroke-width:0.35;stroke-miterlimit:4;stroke-dasharray:none;fill:none;fill-opacity:1;fill-rule: evenodd"/>
<title>b'Line008'</title>
</g>
<g id="Line009" transform="translate(5.371000,100.371000) scale(1,-1)">
<path id="Line009_w0000"  d="M 7.600000000000001 26.0 L 15.100000000000001 100.0 " stroke="#000000" stroke-width="0.35 px" style="stroke-width:0.35;stroke-miterlimit:4;stroke-dasharray:none;fill:none;fill-opacity:1;fill-rule: evenodd"/>
<title>b'Line009'</title>
</g>
<g id="Line010" transform="translate(5.371000,100.371000) scale(1,-1)">
<path id="Line010_w0000"  d="M 25.1 100.0 L 15.100000000000001 100.0 " stroke="#000000" stroke-width="0.35 px" style="stroke-width:0.35;stroke-miterlimit:4;stroke-dasharray:none;fill:none;fill-opacity:1;fill-rule: evenodd"/>
<title>b'Line010'</title>
</g>
<g id="Arc" transform="translate(5.371000,100.371000) scale(1,-1)">
<path id="Arc_nwe0000"  d="M 4.9999999999999964 10.0 A 20.6253 20.6253 0 0 1 25.1 26" stroke="#000000" stroke-width="0.35 px" style="stroke-width:0.35;stroke-miterlimit:4;stroke-dasharray:none;fill:none;fill-opacity:1;fill-rule: evenodd"/>
<title>b'Arc'</title>
</g>
<g id="Arc001" transform="translate(5.371000,100.371000) scale(1,-1)">
<path id="Arc001_nwe0000"  d="M 4.999999999999999 23.4 A 2.6 2.6 0 0 1 7.6 26" stroke="#000000" stroke-width="0.35 px" style="stroke-width:0.35;stroke-miterlimit:4;stroke-dasharray:none;fill:none;fill-opacity:1;fill-rule: evenodd"/>
<title>b'Arc001'</title>
</g>
</svg>